<svg version="1.1" xmlns="http://www.w3.org/2000/svg" xmlns:xlink="http://www.w3.org/1999/xlink" width="48px" height="48px" viewBox="0,0,256,256"><g transform=""><g fill="none" fill-rule="nonzero" stroke="none" stroke-width="1" stroke-linecap="butt" stroke-linejoin="miter" stroke-miterlimit="10" stroke-dasharray="" stroke-dashoffset="0" font-family="none" font-weight="none" font-size="none" text-anchor="none" style="mix-blend-mode: normal"><g transform="scale(5.33333,5.33333)"><path d="M37,6h-26c-2.757,0 -5,2.243 -5,5v26c0,2.757 2.243,5 5,5h26c2.757,0 5,-2.243 5,-5v-26c0,-2.757 -2.243,-5 -5,-5z" fill="#d7d6d0"></path><path d="M38,43c-0.422,0 -0.813,-0.268 -0.951,-0.69l-0.764,-2.344c-0.861,-2.627 -2.492,-4.871 -4.716,-6.487c-2.218,-1.623 -4.835,-2.479 -7.569,-2.479c-5.6,0 -10.536,3.604 -12.285,8.966l-0.764,2.344c-0.171,0.525 -0.735,0.812 -1.261,0.642c-0.525,-0.172 -0.812,-0.736 -0.642,-1.261l0.764,-2.344c2.019,-6.189 7.72,-10.347 14.188,-10.347c3.161,0 6.187,0.99 8.747,2.862c2.563,1.863 4.445,4.451 5.439,7.482l0.765,2.346c0.171,0.524 -0.116,1.089 -0.642,1.261c-0.102,0.033 -0.206,0.049 -0.309,0.049z" fill="#323e50"></path><path d="M24,27c-3.859,0 -7,-3.364 -7,-7.5c0,-4.136 3.141,-7.5 7,-7.5c3.859,0 7,3.364 7,7.5c0,4.136 -3.141,7.5 -7,7.5zM24,14c-2.757,0 -5,2.468 -5,5.5c0,3.032 2.243,5.5 5,5.5c2.757,0 5,-2.468 5,-5.5c0,-3.032 -2.243,-5.5 -5,-5.5z" fill="#323e50"></path></g></g></g></svg>